/* XPM */
static const char * apply_all_xpm[] = {
"32 32 150 2",
"  	c None",
". 	c #FBFBFB",
"+ 	c #FBFBFA",
"@ 	c #FAFAFA",
"# 	c #FAFAF9",
"$ 	c #F9FAF9",
"% 	c #F9F9F9",
"& 	c #F9F9F8",
"* 	c #F8F9F8",
"= 	c #F8F8F8",
"- 	c #F8F8F7",
"; 	c #F7F7F6",
"> 	c #F6F7F6",
", 	c #B3B5B1",
"' 	c #888A85",
") 	c #A9ABA7",
"! 	c #90928E",
"~ 	c #3B7607",
"{ 	c #397503",
"] 	c #3B7704",
"^ 	c #8F918D",
"/ 	c #959692",
"( 	c #A2C137",
"_ 	c #65A628",
": 	c #67A629",
"< 	c #70AB2D",
"[ 	c #9B9D99",
"} 	c #A1A39F",
"| 	c #A7A9A5",
"1 	c #AEAFAC",
"2 	c #B4B5B2",
"3 	c #BABBB8",
"4 	c #6CA923",
"5 	c #3A7603",
"6 	c #C0C1BF",
"7 	c #F6E64C",
"8 	c #467D08",
"9 	c #C6C7C5",
"0 	c #6FAA2C",
"a 	c #74AD2E",
"b 	c #5FA10D",
"c 	c #3A7503",
"d 	c #CDCECC",
"e 	c #76AE31",
"f 	c #77AF31",
"g 	c #6AA92B",
"h 	c #66A628",
"i 	c #4E9A06",
"j 	c #D3D4D2",
"k 	c #A4C76B",
"l 	c #8CBA4C",
"m 	c #75AE2E",
"n 	c #68A82A",
"o 	c #94B923",
"p 	c #D9DAD8",
"q 	c #ACC63C",
"r 	c #FAF3BA",
"s 	c #B4CE70",
"t 	c #71AB2D",
"u 	c #ACC53C",
"v 	c #DFE0DF",
"w 	c #A3C451",
"x 	c #F9EE94",
"y 	c #C4D46B",
"z 	c #74AD2D",
"A 	c #6BA92C",
"B 	c #8CB73F",
"C 	c #A0C24F",
"D 	c #6EAA2C",
"E 	c #E5E6E5",
"F 	c #66A729",
"G 	c #76AE30",
"H 	c #E2E062",
"I 	c #D3D85B",
"J 	c #DEDD60",
"K 	c #75AD2E",
"L 	c #67A827",
"M 	c #76AE2C",
"N 	c #F9EA6A",
"O 	c #CDD556",
"P 	c #70AB2C",
"Q 	c #ECECEB",
"R 	c #73AD2D",
"S 	c #76AE2F",
"T 	c #A2C241",
"U 	c #E6E15A",
"V 	c #84B32A",
"W 	c #F6E755",
"X 	c #69A516",
"Y 	c #61A30F",
"Z 	c #62A30E",
"` 	c #B1C830",
" .	c #FCE94F",
"..	c #CBD23B",
"+.	c #61A310",
"@.	c #65A617",
"#.	c #F2F2F2",
"$.	c #F6E65A",
"%.	c #F1E45D",
"&.	c #F2E555",
"*.	c #FCE951",
"=.	c #C2CE36",
"-.	c #F1E54A",
";.	c #92B922",
">.	c #FCE94E",
",.	c #F2E44B",
"'.	c #A3C129",
").	c #EFE349",
"!.	c #F6E74C",
"~.	c #3E790A",
"{.	c #F7F8F7",
"].	c #62A312",
"^.	c #61A20E",
"/.	c #D2D63D",
"(.	c #BECD35",
"_.	c #79AD17",
":.	c #DCDB42",
"<.	c #60A30D",
"[.	c #FEFEFE",
"}.	c #E5E7E4",
"|.	c #5EA10C",
"1.	c #C6D558",
"2.	c #FCEF80",
"3.	c #71AA19",
"4.	c #549C08",
"5.	c #509B07",
"6.	c #64A410",
"7.	c #9DC03A",
"8.	c #5BA00C",
"9.	c #579E0A",
"0.	c #92BD44",
"a.	c #AFCD64",
"b.	c #9CBD26",
"c.	c #DEE06D",
"d.	c #62A30F",
"e.	c #4F9B07",
"f.	c #539C08",
"g.	c #6EAA1F",
"h.	c #69A718",
"i.	c #519C08",
"j.	c #5EA20C",
"k.	c #74AD28",
"l.	c #5A9F0B",
"m.	c #4F9A06",
"n.	c #5DA10C",
"o.	c #5AA00C",
"p.	c #519B07",
"q.	c #559D09",
"r.	c #96BB24",
"s.	c #EEEFED",
"                                                                ",
"                                                                ",
"                  . . + + @ @ @ @ # # $ % & & & * = - - ; >     ",
"                  , ' ' ' ' ' ' ' ' ' ' ' ' ' ' ' ' ' ' ' )     ",
"                  ! ~ { { { { { { ] { { { { { { { { { { ~ ^     ",
"                  / { ( _ _ _ ( : < _ ( _ _ _ ( _ _ _ ( { /     ",
"            . . + + @ @ @ @ # # $ % & & & * = - - ; > _ { [     ",
"            , ' ' ' ' ' ' ' ' ' ' ' ' ' ' ' ' ' ' ' ) _ { }     ",
"            ! ~ { { { { { { ] { { { { { { { { { { ~ ^ _ { |     ",
"            / { ( _ _ _ ( : < _ ( _ _ _ ( _ _ _ ( { / ( { 1     ",
"      . . + + @ @ @ @ # # $ % & & & * = - - ; > _ { [ _ { 2     ",
"      , ' ' ' ' ' ' ' ' ' ' ' ' ' ' ' ' ' ' ' ) _ { } _ { 3     ",
"      ! ~ { { { { { { ] { { { { { { { { { { ~ ^ _ { | 4 5 6     ",
"      / { ( _ _ _ ( : < _ ( _ _ _ ( _ _ _ ( { / ( { 1 7 8 9     ",
"      [ { _ _ _ _ _ 0 a _ _ _ _ _ _ _ _ _ _ { [ _ { 2 b c d     ",
"      } { _ _ _ _ : e f : _ _ _ _ g h _ _ _ { } _ { 3 i { j     ",
"      | { _ _ _ _ 0 k l g _ _ _ : m n _ _ _ { | 4 5 6 o { p     ",
"      1 { ( _ _ : q r s 0 ( _ _ t u g _ _ ( { 1 7 8 9 i { v     ",
"      2 { _ _ _ 0 w x y z _ _ A B C D _ _ _ { 2 b c d i { E     ",
"      3 { _ _ F G H I J K _ L M N O P _ _ _ { 3 i { j i { Q     ",
"      6 { R R S T U V W X Y Z `  ...Z +.@.4 5 6 o { p o { #.    ",
"      9 { $.%.&.*.=.Z -.;.>.,. .'.). .!.,.7 8 9 i { v { ~.{.    ",
"      d { ].b b b b ^./. .(.Z Z _. .:.Z <.b c d i { E [.[.}.    ",
"      j { i i i i i |.1.2.3.4.5.6.2.7.8.i i { j i { Q           ",
"      p { o i i i o 9.0.a.b.i i ^.c.d.e.i o { p o { #.          ",
"      v { i i i i i f.g.h.i.i i j.k.l.i i i { v { ~.{.          ",
"      E { i i i i i m.Z l.i i i 8.Z 5.i i i { E [.[.}.          ",
"      Q { i i i i i i n.5.i i i 9.o.i i i i { Q                 ",
"      #.{ o i i i o i p.i o i i q.r.i i i o { #.                ",
"      {.~.{ { { { { { { { { { { 5 { { { { { ~.{.                ",
"      s.[.[.[.[.[.[.[.[.[.[.[.[.[.[.[.[.[.[.[.}.                ",
"                                                                "};
