/* XPM */
static const char * const close_but_16px[] = {
/* columns rows colors chars-per-pixel */
"16 13 92 1",
"  c #880000",
". c #890101",
"X c #880505",
"o c #890505",
"O c #960F0F",
"+ c #961010",
"@ c #931616",
"# c #941717",
"$ c #941A1A",
"% c #A11616",
"& c #A21717",
"* c #A11818",
"= c #A21E1E",
"- c #AC1E1E",
"; c #932727",
": c #952D2D",
"> c #9F3131",
", c #9E3B3B",
"< c #9E3F3F",
"1 c #AC2121",
"2 c #AE2020",
"3 c #AE2222",
"4 c #AF2525",
"5 c #B92424",
"6 c #B82727",
"7 c #B92727",
"8 c #A13636",
"9 c #A74242",
"0 c #A74646",
"q c #A54C4C",
"w c #AE4848",
"e c #AD4E4E",
"r c #B64E4E",
"t c #AF5656",
"y c #AB5F5F",
"u c #B55151",
"i c #B05555",
"p c #BD5050",
"a c #BC5151",
"s c #BE5151",
"d c #BE5555",
"f c #AE6969",
"g c #BE6767",
"h c #BF6969",
"j c #BF6F6F",
"k c #C14F4F",
"l c #C96262",
"z c #CB6262",
"x c #C16E6E",
"c c #C77676",
"v c #C77A7A",
"b c #C87878",
"n c #D17272",
"m c #D57272",
"M c #D67474",
"N c #D87272",
"B c #AF8585",
"V c #B68F8F",
"C c #B89797",
"Z c #BE9898",
"A c #CF8484",
"S c #CE8989",
"D c #D28484",
"F c #D18989",
"G c #D78F8F",
"H c #DA8F8F",
"J c #D29A9A",
"K c #D59D9D",
"L c #E28383",
"P c #E58383",
"I c #E48686",
"U c #E39B9B",
"Y c #E69D9D",
"T c #F19595",
"R c #F59696",
"E c #C4A8A8",
"W c #C6ACAC",
"Q c #C9B3B3",
"! c #CDB6B6",
"~ c #C9BBBB",
"^ c #CEBBBB",
"/ c #CFBDBD",
"( c #D0BABA",
") c #E6A0A0",
"_ c #E8A1A1",
"` c #CEC0C0",
"' c #CFC8C8",
"] c #D4C3C3",
"[ c #D5C4C4",
"{ c #D7C8C8",
"} c #EEEFEF",
"| c #F2F5F5",
/* pixels */
"J_))YY))))))))_K",
"URTTRTTTTTRRTTRY",
"GPLISSILLLFFILLH",
"ANmMZ~DMmD~CnmMD",
"vzzzv^`bc^/czzzv",
"jsassg![]^jssssx",
"q#$$#@y}|f@$$$@0",
"<.oo.;E[{W: XX ,",
"w+++>W[w0`Q8+++9",
"w%%$B{i#@e/V=*%w",
"u224tt4-22ri42-r",
"d66655566665666s",
"xkkkkkkkkkkkkkkg"
};
