/* XPM */
static const char * fastsettle_xpm[] = {
"48 48 8 1",
" 	c #2F4F4F",
".	c #D9772C",
"+	c #FF7F24",
"@	c #FFF224",
"#	c #E57929",
"$	c #635B44",
"%	c #F27C26",
"&	c #976739",
"                      .+                        ",
"@@                    #+                        ",
"@@                    #+                        ",
"@   @                 #+                        ",
"@  @@    @            #+                        ",
"@  @@    @            #+                        ",
"@  @@    @            #+                        ",
"@  @@    @            #+                        ",
"@  @@    @            #+                        ",
"@  @@    @            #+                        ",
"@  @@   @ @           #+                        ",
"@$$@@$$$@$@$$$$$$$$$$$%+$$$$$$$$$$$$$$$$$$$$$$$ ",
"@$$@@$$$@$@$$$$$$$$$$$%+$$$$$$$$$$$$$$$$$$$$$$$ ",
"@  @@   @ @           #+                        ",
"@  @@   @ @           #+                        ",
"@  @@   @ @           #+                        ",
" @ @@   @ @           #+                        ",
" @ @ @  @ @           #+                        ",
" @ @ @  @ @           #+                        ",
" @ @ @  @ @           #+                        ",
" @ @ @  @  @          #+                        ",
" @ @ @ @   @          #+                        ",
" @ @ @ @   @          #+                        ",
" @ @ @ @   @          #+                        ",
" @ @ @ @   @      @@@@@@@@@@@@@@@               ",
"&@+@+@+@+++@@@@@@@+++++++++++++++@@@@@@@@@@@@+& ",
" @@  @ @              #+                        ",
" @@  @ @              #+                        ",
" @@  @ @              #+                        ",
" @@  @ @              #+                        ",
" @@  @ @              #+                        ",
" @@   @@              #+                        ",
" @@   @               #+                        ",
" @@   @               #+                        ",
" @@   @               #+                        ",
" @@   @               #+                        ",
" @@   @               #+                        ",
" @@&&&@&&&&&&&&&&&&&&&++&&&&&&&&&&&&&&&&&&&&&&&&",
" @@   @               #+                        ",
" @@                   #+                        ",
" @@                   #+                        ",
" @@                   #+                        ",
" @@                   #+                        ",
" @@                   #+                        ",
" @@                   #+                        ",
"  @                   #+                        ",
"                      #+                        ",
"                      #%                        "};
