/* XPM */
static const char *Icon_xpm[]={
"48 48 740 2",
"Qt c None",
".# c #000000",
"bX c #010101",
"bu c #020202",
"fS c #030303",
"gk c #040404",
"gj c #050505",
"a0 c #060606",
"jD c #070707",
"jc c #080808",
"a1 c #090909",
"jf c #0a0a0a",
"fp c #0b0b0b",
"jE c #0c0c0c",
"jb c #0d0d0d",
".3 c #0d140a",
"jm c #0e0e0e",
"jx c #0f0f0f",
"jl c #101010",
"jC c #111111",
"js c #131313",
"jh c #141414",
"#p c #141d0c",
"jo c #151515",
"ja c #161616",
"iB c #171f11",
"jH c #181818",
"id c #181e11",
"gi c #1a1a1a",
"aw c #1b1b1b",
"c7 c #1c1c1c",
"bv c #1d1d1d",
"jq c #1e1e1e",
"j# c #1f1f1f",
".a c #202020",
"jp c #212121",
"bW c #222222",
"co c #232323",
"jv c #252525",
"eY c #262626",
"cm c #282828",
"jy c #292929",
"hI c #2b2b2b",
"gO c #2b3621",
"hH c #2c2c2c",
"jG c #2d2d2d",
".v c #2e2e2e",
"i6 c #2f2f2f",
"c8 c #303030",
"hf c #303b25",
"hK c #313b26",
"gn c #324028",
"jz c #343434",
"e0 c #344229",
"fU c #354528",
"#3 c #35462e",
"bY c #363636",
"gN c #373737",
"fr c #37452b",
"#A c #38432e",
"#o c #38492a",
"jr c #393939",
"ea c #3a3a3a",
"#w c #3b3b3b",
"ha c #3b4a2e",
"#l c #3b502e",
"bV c #3c3c3c",
"ie c #3c4a2e",
"#X c #3c502d",
"hJ c #3d3d3d",
"eC c #3d4d31",
".4 c #3d4e33",
"i5 c #3e3e3e",
"dt c #3e4b33",
"g8 c #3e4f30",
"ao c #3e502f",
"cn c #404040",
"eb c #405436",
"gh c #414141",
"c5 c #424242",
"#n c #425432",
"g4 c #425433",
"#m c #425534",
"jw c #434343",
"gK c #435132",
"if c #435236",
"ay c #435337",
"dQ c #435437",
"jj c #444444",
"eT c #445236",
"ih c #445437",
"g9 c #445735",
"g7 c #445835",
"fg c #455734",
"gG c #455934",
"c4 c #464646",
"ig c #46573c",
"c9 c #465b3c",
"i0 c #474747",
"b0 c #47553d",
"dL c #475734",
"g6 c #475c37",
"ji c #484848",
"et c #485439",
"hD c #48583c",
"fh c #485f39",
"i4 c #494949",
"d8 c #49583a",
"gb c #495e36",
"aU c #495f38",
"ax c #4a4a4a",
"hL c #4a5a3c",
"gH c #4a603a",
"cj c #4b5e37",
"hg c #4b5e38",
"#k c #4b5e3d",
"fI c #4b6139",
"g3 c #4b613b",
"bt c #4c4c4c",
"cK c #4c5d3f",
".5 c #4c5e3f",
"gF c #4c623c",
"iJ c #4d4d4d",
"a4 c #4d5d3f",
"gP c #4d6040",
"bx c #4d6144",
"eP c #4d6241",
".A c #4e4e4e",
"#h c #4e6041",
"cp c #4e6043",
"gc c #4e653c",
"aV c #4f4f4f",
"#j c #4f603e",
"cF c #4f623e",
"h. c #4f6241",
"g0 c #4f643e",
"#d c #4f6745",
"hG c #505050",
"bo c #50663c",
"jt c #515151",
"ix c #515f42",
"gQ c #516642",
".6 c #516845",
"fJ c #516b3e",
"eZ c #525252",
"#i c #526743",
".7 c #526745",
"hF c #535353",
"ii c #536343",
"iy c #536643",
"hM c #536743",
"g2 c #53683e",
"fl c #545454",
"iv c #546547",
"il c #546747",
"fi c #546848",
"dl c #546a44",
"an c #546d40",
"i1 c #555555",
"iw c #556445",
"#W c #556a44",
"c2 c #556b3e",
"g1 c #556c42",
"gB c #556c44",
"#B c #556c47",
"bS c #556d45",
".y c #565656",
"hv c #56684b",
"ga c #566b3e",
"eQ c #566b42",
"hh c #566c43",
"#4 c #566f4b",
"gM c #575757",
"## c #576c4b",
"eq c #576f45",
"#z c #585858",
"hz c #586a4a",
"#g c #586f4b",
"gA c #587549",
"#s c #595959",
"iz c #596c49",
"gS c #596e47",
"gy c #596e4a",
"#f c #59714d",
"gl c #5a5a5a",
"gI c #5a6b49",
"it c #5a6b4c",
"gR c #5a6e4a",
"im c #5a714c",
"f8 c #5a7249",
"gZ c #5a724b",
"fR c #5b5b5b",
"h8 c #5b664c",
"i7 c #5c5c5c",
"h# c #5c674d",
"gd c #5c704a",
"go c #5c724c",
"fa c #5c744c",
"#T c #5c754d",
"iD c #5d5d5d",
"ik c #5d6f50",
"#c c #5d704e",
".8 c #5d724f",
"#a c #5d7754",
"d9 c #5e5e5e",
"hw c #5e6f4f",
"ij c #5e714e",
"hA c #5e7350",
"fK c #5e744e",
"#V c #5e7547",
"gz c #5e774e",
".V c #5f5f5f",
"hx c #5f7152",
"hy c #5f734e",
"#e c #5f744f",
"ck c #606060",
"iu c #606e50",
"hu c #607550",
"#b c #607650",
"er c #60784c",
"ak c #60794d",
"bw c #616161",
"gW c #61744e",
"in c #617551",
"hN c #617552",
".9 c #617755",
".C c #626262",
"iA c #627554",
"#. c #627756",
"eR c #62784d",
"gY c #627853",
"f7 c #627a4f",
"cl c #636363",
"hO c #637455",
"gC c #637855",
"gX c #637856",
"dI c #637a4f",
"hr c #637a56",
"#U c #637e4c",
"ht c #637e55",
"ip c #647657",
"jk c #656565",
"hj c #657857",
"d5 c #657c4d",
"f5 c #657d54",
"am c #657e4d",
"gL c #666666",
"is c #667655",
"gJ c #667656",
"hi c #667954",
"aT c #66814f",
"#S c #668154",
".E c #676767",
"ge c #677657",
"gE c #677b56",
"fC c #678357",
"al c #678553",
"dJ c #678751",
"gm c #686868",
"dF c #687e59",
"f# c #688358",
"f. c #688359",
".b c #696969",
"ir c #697f5e",
"hs c #698158",
"gx c #698257",
"f6 c #698359",
"aj c #698656",
"fq c #6a6a6a",
"es c #6a7e57",
"eD c #6a8256",
"gT c #6a835c",
"d6 c #6a8753",
"gr c #6b845a",
"az c #6b865c",
"#C c #6b875c",
".u c #6c6c6c",
"fL c #6c7b5e",
"hB c #6c7d5c",
"iq c #6c8060",
"e1 c #6c835f",
"#E c #6c8762",
"dH c #6c885a",
"iF c #6d6d6d",
"fd c #6d815e",
"gU c #6d835b",
"fA c #6d865d",
"gq c #6d8858",
"gV c #6e845c",
"#Q c #6e8a5c",
"dR c #6e8b5d",
"fB c #6e8d5f",
".c c #6f6f6f",
"d7 c #6f8d5a",
".w c #707070",
"fk c #707968",
"io c #708164",
"ai c #708c60",
"i3 c #717171",
"aQ c #71895b",
"dG c #718c60",
"en c #718d5c",
"cf c #718d5d",
"d4 c #718d5f",
"d2 c #718e60",
".d c #727272",
"hn c #728665",
"ci c #72895f",
".2 c #737373",
"du c #738c64",
"eL c #739263",
".W c #747474",
"hS c #748766",
"fY c #748a62",
"fX c #749266",
"jn c #757575",
"h4 c #75836a",
"hq c #758e67",
"#D c #758f64",
".t c #767676",
"gf c #768066",
"gp c #768b66",
"hP c #768f68",
"#R c #769263",
"#M c #769269",
"dC c #76936a",
"aS c #76995f",
".g c #777777",
"f4 c #779265",
".e c #787878",
"hC c #788a6a",
"fV c #788b6b",
"hW c #788d6c",
"e4 c #789168",
"bn c #78925e",
"bk c #789365",
".n c #797979",
"h0 c #79876e",
"h5 c #79886e",
"hk c #799068",
"ah c #799468",
"d3 c #799963",
".f c #7a7a7a",
"hp c #7a9068",
"df c #7a956a",
"eJ c #7a956b",
".h c #7b7b7b",
"h3 c #7b8c6e",
"ho c #7b9069",
"aR c #7b9c60",
".i c #7c7c7c",
"a2 c #7d7d7d",
"h2 c #7d8b6b",
"ce c #7d966b",
"ac c #7d9971",
"aP c #7d9a65",
"eK c #7d9c6a",
".l c #7e7e7e",
"ej c #7e9a6c",
"bO c #7e9b6a",
"dD c #7e9b71",
".k c #7f7f7f",
"hT c #7f926f",
"fv c #7f986d",
"bZ c #808080",
"gs c #80986c",
"cc c #809973",
"#I c #809a70",
"#P c #809b6e",
"cY c #809c70",
"dj c #809f66",
"bR c #80a068",
".m c #818181",
"hZ c #819476",
"hU c #819572",
"hQ c #819773",
"hm c #81986f",
"gt c #819d70",
"gu c #819d71",
".j c #828282",
"hl c #82976e",
"bm c #82a668",
".U c #838383",
"ag c #839a72",
"cW c #839c73",
"aO c #839f70",
"dh c #83a16c",
"dZ c #83a173",
"bj c #83a26b",
"#O c #83a271",
"#F c #83a373",
"el c #83a470",
"eV c #84837f",
"c6 c #848484",
"h1 c #849176",
"bg c #849b75",
"a. c #849f75",
"af c #84a175",
"dg c #84a372",
".p c #858585",
"h6 c #859378",
"fs c #859978",
"bL c #859f76",
"bN c #85a173",
"bi c #85a272",
"d1 c #85a672",
".o c #868686",
"fH c #869879",
"gw c #869f76",
"ek c #86a973",
".x c #878787",
"#G c #87a478",
".I c #888888",
"hR c #889978",
"cd c #88a276",
"ae c #88a376",
"d. c #88a479",
"#K c #88a779",
"cB c #88a976",
"fT c #898989",
"hV c #899a78",
"gv c #899e7b",
"fZ c #89a578",
"jF c #8a8a8a",
"hY c #8a9a7d",
"dw c #8aa27e",
"cX c #8aa476",
"#L c #8aa67a",
"#H c #8aa97a",
"#J c #8aaa79",
"dS c #8aaa7d",
"d0 c #8aab7c",
"at c #8b8a87",
"#2 c #8b8b8b",
"eF c #8ba37c",
"aN c #8ba978",
"eW c #8c8987",
".K c #8c8c8c",
"ab c #8ca97d",
"cJ c #8d8d8d",
"h7 c #8d9a80",
"hX c #8da17f",
"e5 c #8da47e",
"bh c #8da67a",
"f0 c #8da77d",
"cz c #8da97d",
".s c #8e8e8e",
"bP c #8ea67e",
"bM c #8eab7e",
".z c #8f8f8f",
"fM c #8f9b85",
"f1 c #8fa87f",
"aa c #8fab81",
".q c #909090",
"g5 c #90a286",
"eA c #919191",
"e6 c #91a683",
"ed c #91a981",
"dz c #91a985",
"#N c #91ab81",
"a# c #91ab83",
"ad c #91ab84",
"fD c #91ab85",
"fw c #91ad83",
".T c #929292",
"fj c #929d86",
"#9 c #92ad83",
"dB c #92af85",
".r c #939393",
"cb c #93ae84",
"dT c #93ae85",
"fn c #94928f",
"eB c #949494",
"a5 c #94ad81",
"au c #959290",
"bq c #959595",
"cL c #95af84",
"aJ c #95af8a",
"cA c #95b283",
"de c #95b688",
"aX c #969491",
"#x c #969696",
"fx c #96b288",
"bf c #96b488",
"#y c #979797",
".R c #989898",
"b1 c #98ae87",
"iY c #999694",
".0 c #999999",
"dv c #99b28c",
".B c #9a9a9a",
"#8 c #9ab58c",
"cq c #9ab68b",
"bK c #9ab68c",
"dA c #9ab68e",
".S c #9b9b9b",
"dW c #9bb692",
"a3 c #9c9c9c",
"aM c #9cb98c",
"aF c #9cb991",
"ds c #9d9d9d",
"jA c #9e9e9e",
".1 c #9f9f9f",
"a7 c #9fb78e",
"eI c #9fb991",
"c0 c #9fba8a",
"dY c #9fbf91",
".J c #a0a0a0",
".H c #a1a1a1",
"e8 c #a1b693",
"aL c #a1be8e",
"bT c #a2a2a2",
"dx c #a2b993",
"b7 c #a2b99a",
"eG c #a2bc92",
"by c #a2bd95",
".D c #a3a3a3",
"eh c #a3bf93",
"c. c #a3bf99",
"aK c #a3c395",
".G c #a4a4a4",
"db c #a4bf9b",
"i9 c #a5a3a1",
"iZ c #a5a3a2",
"dm c #a5a5a5",
"g# c #a5b59a",
"dP c #a6a6a6",
"be c #a6c295",
"eH c #a6c299",
"dX c #a6c59a",
"bQ c #a6c88f",
"dr c #a7a7a7",
"cI c #a8a8a8",
"fu c #a8c099",
".F c #a9a9a9",
"ff c #a9b69e",
"em c #a9bd9b",
"b# c #a9c39c",
"ee c #a9c599",
"aI c #a9c79b",
"dp c #aaaaaa",
"b9 c #aac3a1",
"aH c #aacb9b",
"dd c #aacca1",
"fO c #ababab",
"aC c #abca9c",
".Q c #acacac",
"fz c #acc3a0",
"dU c #adc69b",
"ef c #adca9f",
"dO c #aeaeae",
"bE c #aecba3",
"aG c #aecca1",
"dV c #aecca2",
"aE c #aecea3",
".L c #afafaf",
"eo c #afc5a1",
"cQ c #afc7a4",
"cC c #afca9f",
"b8 c #afcba6",
"aD c #afcca2",
"he c #b0b0b0",
"aY c #b1b0ad",
"hE c #b1b1b1",
"fW c #b1c4a5",
"#Z c #b2b2b2",
"cE c #b2c8a1",
"cS c #b2d2a9",
"fo c #b3b1ad",
".P c #b3b3b3",
"je c #b4b4b4",
"cu c #b4ccab",
"bc c #b4d0a4",
"bb c #b4d2a6",
"dc c #b4d3a9",
"dq c #b5b5b5",
"ba c #b5d3aa",
".M c #b6b6b6",
"b6 c #b6ceab",
"bI c #b6d0ad",
"cU c #b6d4aa",
"ar c #b7b7b7",
"bH c #b7d5ab",
"iR c #b8b8b8",
".N c #b9b9b9",
"da c #b9d4ab",
".O c #bababa",
"iK c #bbbbbb",
"ex c #bcbcbc",
"bB c #bcd2ae",
"bJ c #bcd4ae",
"a9 c #bcd8ae",
"cR c #bcd8af",
"cw c #bcd8b2",
"bG c #bcdaae",
".Z c #bdbdbd",
"f9 c #bdccb2",
"dE c #bdd3af",
"#t c #bebebe",
"b. c #bedbb2",
"cH c #bfbfbf",
"bF c #bfdcb5",
".X c #c0c0c0",
"dK c #c0d4b4",
"ec c #c0d7b2",
"#Y c #c1c1c1",
".Y c #c2c2c2",
"#r c #c3c3c3",
"fy c #c3d8b6",
"cv c #c3dfb7",
"jB c #c4c4c4",
"d# c #c4dbb6",
"#q c #c5c5c5",
"fb c #c5d5bb",
"jg c #c6c6c6",
"b3 c #c6dcbd",
"eU c #c7c7c7",
"eS c #c7d3bd",
"bD c #c7e5bc",
"aq c #c8c8c8",
"iM c #c9c9c9",
"j. c #cac8c5",
"bU c #cacaca",
"iC c #cbcbcb",
"e3 c #cbdbc1",
"cy c #cbe5be",
"ic c #cccccc",
"eg c #ccdfc2",
"i2 c #cdcdcd",
"ap c #cecece",
"cG c #cfcfcf",
"ew c #d0d0d0",
"bl c #d0eabb",
"eX c #d1d1d1",
"aB c #d1e6c4",
"aZ c #d2d2d1",
"do c #d2d2d2",
"f3 c #d3e5c7",
"e9 c #d3e5c9",
"cO c #d3ecc6",
"fN c #d4d4d4",
"ib c #d5d5d5",
"bs c #d6d6d6",
"hd c #d7d7d7",
"cM c #d7eec7",
"iQ c #d8d6b9",
"bp c #d8d8d8",
"ei c #d8eecb",
"bC c #d8f0cc",
"i8 c #d9d9d9",
"ez c #dac89b",
"ev c #dadada",
"cx c #daf5d0",
"av c #dbdbdb",
"dn c #dcdcdc",
"dN c #dddddd",
"e# c #decea4",
"iP c #dedede",
"iS c #dfdfdf",
"dy c #dff0d4",
"iT c #e0e0e0",
"iI c #e1dec2",
"br c #e1e1e1",
"eu c #e2e2e2",
"ey c #e3e3da",
"fQ c #e3e3e3",
"f2 c #e3f2dc",
"dM c #e4e4e4",
"ch c #e4f8d4",
"c3 c #e5e5e5",
"fF c #e5edd9",
"cg c #e5f0d8",
"bd c #e5fbda",
"cr c #e5fcda",
"e. c #e6e6bc",
"iH c #e6e6db",
"gg c #e6e6e6",
"eN c #e6f1dc",
"cV c #e6fbdc",
"hc c #e7e7e7",
"ca c #e7f8df",
"cZ c #e7fbda",
"cs c #e7fdde",
"ia c #e8e8e8",
"c1 c #e8f2d7",
"iG c #e9e9e9",
"hb c #eaeaea",
"b2 c #eafce1",
"#1 c #ebd8aa",
"iU c #ebebeb",
"fP c #ececec",
"aW c #ededed",
"eM c #edfce5",
"a8 c #edffe3",
"ju c #eeeeee",
"e7 c #eefbe5",
"#5 c #eefce7",
"bA c #eeffe2",
"ct c #eeffe5",
"#v c #efdcaf",
"fm c #efefef",
"#0 c #f0f0e7",
"as c #f0f0f0",
"fe c #f1f6ed",
"fG c #f1f7eb",
"jd c #f3f3f3",
"c# c #f3ffec",
"i# c #f4f4f4",
"#7 c #f4ffef",
"i. c #f5f5f5",
"eO c #f5f9f1",
"eE c #f5feed",
"#u c #f6f4c5",
"iL c #f6f6f6",
"b4 c #f6fff0",
"h9 c #f7f7f7",
"iX c #f8f8f8",
"ft c #f9fbf1",
"fc c #f9fbf8",
"iE c #fafafa",
"fE c #fafdf8",
"iO c #fbfbfb",
"b5 c #fbfff5",
"iW c #fcfcfc",
"e2 c #fcfdfa",
"cN c #fcfff5",
"ep c #fcfffb",
"iV c #fdfdfd",
"gD c #fdfef7",
"dk c #fdfefd",
"di c #fefefd",
"iN c #fefefe",
"bz c #fefff4",
"cD c #fefffe",
"aA c #fffff5",
"cT c #fffff7",
"a6 c #fffffb",
"g. c #fffffc",
"cP c #fffffe",
"#6 c #ffffff",
"QtQtQtQtQtQtQtQtQtQtQtQtQtQtQtQtQtQtQtQtQtQtQtQtQtQtQtQtQtQtQtQtQtQtQtQtQtQtQtQtQtQtQtQtQtQtQtQt",
"QtQtQtQtQtQtQtQtQtQtQtQtQtQtQtQtQtQtQtQtQtQtQtQtQtQtQtQtQtQtQtQtQtQtQtQtQtQtQtQtQtQtQtQtQtQtQtQt",
"QtQtQtQtQtQtQtQtQtQtQtQtQtQtQtQtQtQtQtQtQtQtQtQtQtQtQtQtQtQtQtQtQtQtQtQtQtQtQtQtQtQtQtQtQtQtQtQt",
"QtQtQtQtQtQtQtQtQtQtQtQtQtQtQtQtQtQtQtQtQtQtQtQtQtQtQtQtQtQtQtQtQtQtQtQtQtQtQtQtQtQtQtQtQtQtQtQt",
"QtQtQtQtQtQtQtQtQtQtQtQtQtQtQtQtQtQtQtQtQtQtQtQtQtQtQtQtQtQtQtQtQtQtQtQtQtQtQtQtQtQtQtQtQtQtQtQt",
"QtQtQtQtQtQtQtQtQtQtQtQtQtQtQtQtQtQtQtQtQtQtQtQtQtQtQtQtQtQtQtQtQtQtQtQtQtQtQtQtQtQtQtQtQtQtQtQt",
"QtQtQtQtQt.#.#.#.#.#.#.#.#.#.#.#.#.#.#.#.#.#.#.#.#.#.#.#.#.#.#.#.#.#.#.#.#.#.#.#.#.#.#.#QtQtQtQt",
"QtQtQtQt.#.a.b.c.d.c.e.f.g.h.i.h.j.j.i.k.l.f.k.m.h.l.l.e.k.l.n.m.o.p.q.r.s.s.o.n.h.t.u.v.#QtQtQt",
"QtQtQtQt.#.w.m.j.x.y.z.A.B.C.D.E.F.b.F.s.G.g.G.g.D.g.H.I.B.o.J.K.F.L.M.N.O.P.Q.R.H.S.T.K.#QtQtQt",
"QtQtQtQt.#.c.U.V.#.#.#.#.#.#.#.#.#.#.#.#.#.#.#.#.#.#.#.#.#.#.#.#.#.W.X.Y.X.Z.w.0.F.D.1.R.#QtQtQt",
"QtQtQtQt.#.2.x.#.3.4.5.6.7.8.9#.###a#b#c#d#e#f#g#h#i#j#k#l#m#n#o#p.##q#r#s#t#u#v.q#w#x#y.#QtQtQt",
"QtQtQtQt.#.g#z.##A#B#C#D#E#F#G#H#I#J#K#L#M#N#O#P#Q#R#Q#S#T#U#V#W#X.#.Q#q#Y#Z#0#1#2#s.f.q.#QtQtQt",
"QtQtQtQt.#.e.z.##3#4#5#6#7#8#9#9a.a#aaabacadaeafagahaiajakalamanao.#apaqarasatauavawax.m.#QtQtQt",
"QtQtQtQt.#.e.b.#ayazaA#6aBaCaDaEaFaGaHaIaJaKaLaMafaNaOaPaQaRaSaTaU.#.PaV.1aWaXaYaZa0a1.c.#QtQtQt",
"QtQtQtQt.#a2a3.#a4a5a6#6a7a8a9b.b#babbbcaFbdbebfbgbhbibjbkblbmbnbo.#bp#qbq.2brbsbtbubv.c.#QtQtQt",
"QtQtQtQt.#.lbw.#bxbybzbAbB#6bCbDbEbFbGbHbI#6bJbKbLbMbNbObP#6bQbRbS.#bTbUbVbwbWa0bubXbYbZ.#QtQtQt",
"QtQtQtQt.#.k.1.#b0b1b2b3b4#6b5b6b7b8b9c.c##6cacbcccdcecfcg#6chcicj.#brck.X.RclbYcmcnco.q.#QtQtQt",
"QtQtQtQt.#.j.W.#cpcqcrcs#6#6#6ctcucvcwcx#6#6#6cyczcAcBcC#6cDcDcEcF.#.YbpcGcHcIbqcJ.r.S.B.#QtQtQt",
"QtQtQtQt.#.m.1.#cKcLcMcN#6cO#6cPcQcRcScT#6cU#6cVcWcXcYcZ#6c0cPc1c2.#c3avc4c5c6.ac7.gc8.1.#QtQtQt",
"QtQtQtQt.#.l.x.#c9d.d##6#6da#6#6dbdcdd#6#6de#6#6dfdgdh#6didjdidkdl.#dmdndobU.Ydpdq.Ldr.1.#QtQtQt",
"QtQtQtQt.#bZds.#dtdudv#6dwdxdy#6dzdAdB#6dCdDdE#6dFdGdH#6dIdJdKdkdL.#dMdNdobU.WbqdO.FdP.H.#QtQtQt",
"QtQtQtQt.#.kc6.#dQdRdS#6dTdUdV#6dWdXdY#6dZd0d1#6d2d3d4#6d5d6d7dkd8.#.Yavd9aqe.e#bqea.0.S.#QtQtQt",
"QtQtQtQt.#.l.0.#eb#Qec#6edeeef#6egehei#6ejekel#6emeneoepeqeresdiet.#euevewexeyezeAck.feB.#QtQtQt",
"QtQtQtQt.#bZ.l.#eCeDeE#6eFeGeH#6#6eI#6#6eJeKeLdieMakeNeOePeQeReSeT.#.GbpeUaWeVeWeXeYeZ.K.#QtQtQt",
"QtQtQtQt.#.lbq.#e0e1e2e3e4e5e6e7#6e8#6e9f.f#fafbfcfdfefffgfhfifjfk.#euflarfmfnfobsa0fp.U.#QtQtQt",
"QtQtQtQt.#.ifq.#frfsftfufvfwfxfy#6dicPfzfAfBfCfDfEfFfGfHfIfJfKfLfM.##tfNfOc6fPfQfRfSbYfT.#QtQtQt",
"QtQtQtQt.#a2eA.#fUfVfWfXfYfZf0f1f2#6f3f4f5f6f7f8f9g.g#gagbgcgdgegf.#ggevgh.VgigjfSgkgl.B.#QtQtQt",
"QtQtQtQt.#.hgm.#gngogpgqgrgsgtgugv#6gwgxgygzgAgBgCgDgEgFgGgHgIgJgK.#cIgLewdsgMbYea.VgNdr.#QtQtQt",
"QtQtQtQt.#.e.z.#gOgPgQgRgSgTgUgVgWgXgYgZg0g1g2g3g4g5g6g7g8g9h.h#ha.#fPhbhchd.O.DdP.M.Ohe.#QtQtQt",
"QtQtQtQt.#.f.g.#hfhghhhihjhkhlhmhnhohphqhrhshthuhvhwhxhyhzhAhBhChD.#hEashFhG.JhHhI.KhJdq.#QtQtQt",
"QtQtQtQt.#.hcJ.#hKhLhMhNhOhPhQhRhShThUhVhWhXhYhZh0h1h2h3h4h5h6h7h8.#h9i.i#fmiaeUibic.X.P.#QtQtQt",
"QtQtQtQt.#.f.n.#idieifigihiiijikiliminioipiqirisitiuiviwixiyiziAiB.#evh9i#fmcJheiC#q.ZdO.#QtQtQt",
"QtQtQtQt.#a2eAiD.#.#.#.#.#.#.#.#.#.#.#.#.#.#.#.#.#.#.#.#.#.#.#.#.#.MiEh9iFiGiHiIdqiJ.Pdr.#QtQtQt",
"QtQtQtQt.#.leB.0.1fT.D.IdpeBiKdPapdqhdcHfPewiLeXfmaqhccIhbiMi.bs#6iNiOi.aWbsiPiQhE.U#x.1.#QtQtQt",
"QtQtQtQt.#.ieB.r#z.#.#hG.iax.#.#hFdPiR#YewiPeufQfQiSiPbriTiUfmiUiViWiXfmeviPiYiZQti0.u.T.#QtQtQt",
"QtQtQtQt.#bZbqi1.1iUiS.wcn.zi2i2i3i4#y.ni5i6dNdnbpdnevaviPdMeU.g.P.lewi7#qi8i9j.ewj#gic6.#QtQtQt",
"QtQtQtQt.#.l.T.#iUjajb#y.#iMjcjc#x.#.2hH#ZiMfNfNi2ibhdhddnbrfP.ciL.ijdfQjeeAeXcG.wjac5a2.#QtQtQt",
"QtQtQtQt.#.i#2.#iajfgkbU.##qbXbXjg.#hFjhfOjiewjjeZdrapi5cGgldnfqjdclfmiSbVjkeYjljma0hF.l.#QtQtQt",
"QtQtQtQt.#.i.U.AjniRcGgljojidr#Yi1jp.AjqcIc7aqi5aqcm#qjri2jsbpjtfPckju.Ci2eB#seahJjtjv.m.#QtQtQt",
"QtQtQtQt.#.n.o.2jw.#.#j#jajx.#.#jhjy.bbw.ajzeUhJbUeYbUjAcl.vcI.h.p.K#qggiPjBdP#2fT.p.xc6.#QtQtQt",
"QtQtQtQt.#.g.K.UiFbtcmjCfpa1jDjEcoaV.i.SfO.O.YiK.X#Y.YjBaqiMcGbpdNfQbrbrc4bV.mjojCiDco.I.#QtQtQt",
"QtQtQtQt.#eajF#2.o.li3.CgMbtjti7gL.t#2#xdmhearariR.M.NexiKex#riMapfNhdibew#q.NcIa3.T.sjG.#QtQtQt",
"QtQtQtQtQt.#.#.#bXfSjDjEjxjxjmjxjxjogic7jHjlgjbXbX.#.#.#.#.#.#.#.#.#.#.#.#.#.#.#.#.#.#.#QtQtQtQt",
"QtQtQtQtQtQtQtQtQtQtQtQtQtQtQtQtQtQtQtQtQtQtQtQtQtQtQtQtQtQtQtQtQtQtQtQtQtQtQtQtQtQtQtQtQtQtQtQt",
"QtQtQtQtQtQtQtQtQtQtQtQtQtQtQtQtQtQtQtQtQtQtQtQtQtQtQtQtQtQtQtQtQtQtQtQtQtQtQtQtQtQtQtQtQtQtQtQt",
"QtQtQtQtQtQtQtQtQtQtQtQtQtQtQtQtQtQtQtQtQtQtQtQtQtQtQtQtQtQtQtQtQtQtQtQtQtQtQtQtQtQtQtQtQtQtQtQt",
"QtQtQtQtQtQtQtQtQtQtQtQtQtQtQtQtQtQtQtQtQtQtQtQtQtQtQtQtQtQtQtQtQtQtQtQtQtQtQtQtQtQtQtQtQtQtQtQt",
"QtQtQtQtQtQtQtQtQtQtQtQtQtQtQtQtQtQtQtQtQtQtQtQtQtQtQtQtQtQtQtQtQtQtQtQtQtQtQtQtQtQtQtQtQtQtQtQt"};
