/* XPM */
static const char * Icon_Config_xpm[] = {
"48 48 839 2",
"  	c None",
". 	c #000000",
"+ 	c #202020",
"@ 	c #696969",
"# 	c #6F6F6F",
"$ 	c #727272",
"% 	c #787878",
"& 	c #7A7A7A",
"* 	c #777777",
"= 	c #7B7B7B",
"- 	c #7C7C7C",
"; 	c #828282",
"> 	c #7F7F7F",
", 	c #7E7E7E",
"' 	c #818181",
") 	c #797979",
"! 	c #868686",
"~ 	c #858585",
"{ 	c #909090",
"] 	c #939393",
"^ 	c #8E8E8E",
"/ 	c #767676",
"( 	c #6C6C6C",
"_ 	c #2E2E2E",
": 	c #707070",
"< 	c #878787",
"[ 	c #565656",
"} 	c #8F8F8F",
"| 	c #4E4E4E",
"1 	c #9A9A9A",
"2 	c #626262",
"3 	c #A3A3A3",
"4 	c #676767",
"5 	c #A9A9A9",
"6 	c #A4A4A4",
"7 	c #A1A1A1",
"8 	c #888888",
"9 	c #A0A0A0",
"0 	c #8C8C8C",
"a 	c #AFAFAF",
"b 	c #B6B6B6",
"c 	c #B9B9B9",
"d 	c #BABABA",
"e 	c #B3B3B3",
"f 	c #ACACAC",
"g 	c #989898",
"h 	c #9B9B9B",
"i 	c #929292",
"j 	c #838383",
"k 	c #5F5F5F",
"l 	c #747474",
"m 	c #C0C0C0",
"n 	c #C2C2C2",
"o 	c #BDBDBD",
"p 	c #999999",
"q 	c #9F9F9F",
"r 	c #737373",
"s 	c #0D140A",
"t 	c #3D4E33",
"u 	c #4C5E3F",
"v 	c #516845",
"w 	c #526745",
"x 	c #5D724F",
"y 	c #617755",
"z 	c #627756",
"A 	c #576C4B",
"B 	c #5D7754",
"C 	c #607650",
"D 	c #5D704E",
"E 	c #4F6745",
"F 	c #5F744F",
"G 	c #59714D",
"H 	c #586F4B",
"I 	c #4E6041",
"J 	c #526743",
"K 	c #4F603E",
"L 	c #4B5E3D",
"M 	c #3B502E",
"N 	c #425534",
"O 	c #425432",
"P 	c #38492A",
"Q 	c #141D0C",
"R 	c #C5C5C5",
"S 	c #C3C3C3",
"T 	c #595959",
"U 	c #BEBEBE",
"V 	c #F6F4C5",
"W 	c #EFDCAF",
"X 	c #3B3B3B",
"Y 	c #969696",
"Z 	c #979797",
"` 	c #585858",
" .	c #38432E",
"..	c #556C47",
"+.	c #6B875C",
"@.	c #758F64",
"#.	c #6C8762",
"$.	c #83A373",
"%.	c #87A478",
"&.	c #8AA97A",
"*.	c #809A70",
"=.	c #8AAA79",
"-.	c #88A779",
";.	c #8AA67A",
">.	c #769269",
",.	c #91AB81",
"'.	c #83A271",
").	c #809B6E",
"!.	c #6E8A5C",
"~.	c #769263",
"{.	c #668154",
"].	c #5C754D",
"^.	c #637E4C",
"/.	c #5E7547",
"(.	c #556A44",
"_.	c #3C502D",
":.	c #C1C1C1",
"<.	c #B2B2B2",
"[.	c #F0F0E7",
"}.	c #EBD8AA",
"|.	c #8B8B8B",
"1.	c #35462E",
"2.	c #566F4B",
"3.	c #EEFCE7",
"4.	c #FFFFFF",
"5.	c #F4FFEF",
"6.	c #9AB58C",
"7.	c #92AD83",
"8.	c #849F75",
"9.	c #91AB83",
"0.	c #8FAB81",
"a.	c #8CA97D",
"b.	c #7D9971",
"c.	c #91AB84",
"d.	c #88A376",
"e.	c #84A175",
"f.	c #839A72",
"g.	c #799468",
"h.	c #708C60",
"i.	c #698656",
"j.	c #60794D",
"k.	c #678553",
"l.	c #657E4D",
"m.	c #546D40",
"n.	c #3E502F",
"o.	c #CECECE",
"p.	c #C8C8C8",
"q.	c #B7B7B7",
"r.	c #F0F0F0",
"s.	c #8B8A87",
"t.	c #959290",
"u.	c #DBDBDB",
"v.	c #1B1B1B",
"w.	c #4A4A4A",
"x.	c #435337",
"y.	c #6B865C",
"z.	c #FFFFF5",
"A.	c #D1E6C4",
"B.	c #ABCA9C",
"C.	c #AFCCA2",
"D.	c #AECEA3",
"E.	c #9CB991",
"F.	c #AECCA1",
"G.	c #AACB9B",
"H.	c #A9C79B",
"I.	c #95AF8A",
"J.	c #A3C395",
"K.	c #A1BE8E",
"L.	c #9CB98C",
"M.	c #8BA978",
"N.	c #839F70",
"O.	c #7D9A65",
"P.	c #71895B",
"Q.	c #7B9C60",
"R.	c #76995F",
"S.	c #66814F",
"T.	c #495F38",
"U.	c #4F4F4F",
"V.	c #EDEDED",
"W.	c #969491",
"X.	c #B1B0AD",
"Y.	c #D2D2D1",
"Z.	c #060606",
"`.	c #090909",
" +	c #7D7D7D",
".+	c #9C9C9C",
"++	c #4D5D3F",
"@+	c #94AD81",
"#+	c #FFFFFB",
"$+	c #9FB78E",
"%+	c #EDFFE3",
"&+	c #BCD8AE",
"*+	c #BEDBB2",
"=+	c #A9C39C",
"-+	c #B5D3AA",
";+	c #B4D2A6",
">+	c #B4D0A4",
",+	c #E5FBDA",
"'+	c #A6C295",
")+	c #96B488",
"!+	c #849B75",
"~+	c #8DA67A",
"{+	c #85A272",
"]+	c #83A26B",
"^+	c #789365",
"/+	c #D0EABB",
"(+	c #82A668",
"_+	c #78925E",
":+	c #50663C",
"<+	c #D8D8D8",
"[+	c #959595",
"}+	c #E1E1E1",
"|+	c #D6D6D6",
"1+	c #4C4C4C",
"2+	c #020202",
"3+	c #1D1D1D",
"4+	c #616161",
"5+	c #4D6144",
"6+	c #A2BD95",
"7+	c #FEFFF4",
"8+	c #EEFFE2",
"9+	c #BCD2AE",
"0+	c #D8F0CC",
"a+	c #C7E5BC",
"b+	c #AECBA3",
"c+	c #BFDCB5",
"d+	c #BCDAAE",
"e+	c #B7D5AB",
"f+	c #B6D0AD",
"g+	c #BCD4AE",
"h+	c #9AB68C",
"i+	c #859F76",
"j+	c #8EAB7E",
"k+	c #85A173",
"l+	c #7E9B6A",
"m+	c #8EA67E",
"n+	c #A6C88F",
"o+	c #80A068",
"p+	c #556D45",
"q+	c #A2A2A2",
"r+	c #CACACA",
"s+	c #3C3C3C",
"t+	c #222222",
"u+	c #010101",
"v+	c #363636",
"w+	c #808080",
"x+	c #47553D",
"y+	c #98AE87",
"z+	c #EAFCE1",
"A+	c #C6DCBD",
"B+	c #F6FFF0",
"C+	c #FBFFF5",
"D+	c #B6CEAB",
"E+	c #A2B99A",
"F+	c #AFCBA6",
"G+	c #AAC3A1",
"H+	c #A3BF99",
"I+	c #F3FFEC",
"J+	c #E7F8DF",
"K+	c #93AE84",
"L+	c #809973",
"M+	c #88A276",
"N+	c #7D966B",
"O+	c #718D5D",
"P+	c #E5F0D8",
"Q+	c #E4F8D4",
"R+	c #72895F",
"S+	c #4B5E37",
"T+	c #606060",
"U+	c #636363",
"V+	c #282828",
"W+	c #404040",
"X+	c #232323",
"Y+	c #4E6043",
"Z+	c #9AB68B",
"`+	c #E5FCDA",
" @	c #E7FDDE",
".@	c #EEFFE5",
"+@	c #B4CCAB",
"@@	c #C3DFB7",
"#@	c #BCD8B2",
"$@	c #DAF5D0",
"%@	c #CBE5BE",
"&@	c #8DA97D",
"*@	c #95B283",
"=@	c #88A976",
"-@	c #AFCA9F",
";@	c #FEFFFE",
">@	c #B2C8A1",
",@	c #4F623E",
"'@	c #CFCFCF",
")@	c #BFBFBF",
"!@	c #A8A8A8",
"~@	c #8D8D8D",
"{@	c #4C5D3F",
"]@	c #95AF84",
"^@	c #D7EEC7",
"/@	c #FCFFF5",
"(@	c #D3ECC6",
"_@	c #FFFFFE",
":@	c #AFC7A4",
"<@	c #BCD8AF",
"[@	c #B2D2A9",
"}@	c #FFFFF7",
"|@	c #B6D4AA",
"1@	c #E6FBDC",
"2@	c #839C73",
"3@	c #8AA476",
"4@	c #809C70",
"5@	c #E7FBDA",
"6@	c #9FBA8A",
"7@	c #E8F2D7",
"8@	c #556B3E",
"9@	c #E5E5E5",
"0@	c #464646",
"a@	c #424242",
"b@	c #848484",
"c@	c #1C1C1C",
"d@	c #303030",
"e@	c #465B3C",
"f@	c #88A479",
"g@	c #C4DBB6",
"h@	c #B9D4AB",
"i@	c #A4BF9B",
"j@	c #B4D3A9",
"k@	c #AACCA1",
"l@	c #95B688",
"m@	c #7A956A",
"n@	c #84A372",
"o@	c #83A16C",
"p@	c #FEFEFD",
"q@	c #809F66",
"r@	c #FDFEFD",
"s@	c #546A44",
"t@	c #A5A5A5",
"u@	c #DCDCDC",
"v@	c #D2D2D2",
"w@	c #AAAAAA",
"x@	c #B5B5B5",
"y@	c #A7A7A7",
"z@	c #9D9D9D",
"A@	c #3E4B33",
"B@	c #738C64",
"C@	c #99B28C",
"D@	c #8AA27E",
"E@	c #A2B993",
"F@	c #DFF0D4",
"G@	c #91A985",
"H@	c #9AB68E",
"I@	c #92AF85",
"J@	c #76936A",
"K@	c #7E9B71",
"L@	c #BDD3AF",
"M@	c #687E59",
"N@	c #718C60",
"O@	c #6C885A",
"P@	c #637A4F",
"Q@	c #678751",
"R@	c #C0D4B4",
"S@	c #475734",
"T@	c #E4E4E4",
"U@	c #DDDDDD",
"V@	c #AEAEAE",
"W@	c #A6A6A6",
"X@	c #435437",
"Y@	c #6E8B5D",
"Z@	c #8AAA7D",
"`@	c #93AE85",
" #	c #ADC69B",
".#	c #AECCA2",
"+#	c #9BB692",
"@#	c #A6C59A",
"##	c #9FBF91",
"$#	c #83A173",
"%#	c #8AAB7C",
"&#	c #85A672",
"*#	c #718E60",
"=#	c #799963",
"-#	c #718D5F",
";#	c #657C4D",
">#	c #6A8753",
",#	c #6F8D5A",
"'#	c #49583A",
")#	c #5E5E5E",
"!#	c #E6E6BC",
"~#	c #DECEA4",
"{#	c #3A3A3A",
"]#	c #405436",
"^#	c #C0D7B2",
"/#	c #91A981",
"(#	c #A9C599",
"_#	c #ADCA9F",
":#	c #CCDFC2",
"<#	c #A3BF93",
"[#	c #D8EECB",
"}#	c #7E9A6C",
"|#	c #86A973",
"1#	c #83A470",
"2#	c #A9BD9B",
"3#	c #718D5C",
"4#	c #AFC5A1",
"5#	c #FCFFFB",
"6#	c #576F45",
"7#	c #60784C",
"8#	c #6A7E57",
"9#	c #485439",
"0#	c #E2E2E2",
"a#	c #DADADA",
"b#	c #D0D0D0",
"c#	c #BCBCBC",
"d#	c #E3E3DA",
"e#	c #DAC89B",
"f#	c #919191",
"g#	c #949494",
"h#	c #3D4D31",
"i#	c #6A8256",
"j#	c #F5FEED",
"k#	c #8BA37C",
"l#	c #A2BC92",
"m#	c #A6C299",
"n#	c #9FB991",
"o#	c #7A956B",
"p#	c #7D9C6A",
"q#	c #739263",
"r#	c #EDFCE5",
"s#	c #E6F1DC",
"t#	c #F5F9F1",
"u#	c #4D6241",
"v#	c #566B42",
"w#	c #62784D",
"x#	c #C7D3BD",
"y#	c #445236",
"z#	c #C7C7C7",
"A#	c #84837F",
"B#	c #8C8987",
"C#	c #D1D1D1",
"D#	c #262626",
"E#	c #525252",
"F#	c #344229",
"G#	c #6C835F",
"H#	c #FCFDFA",
"I#	c #CBDBC1",
"J#	c #789168",
"K#	c #8DA47E",
"L#	c #91A683",
"M#	c #EEFBE5",
"N#	c #A1B693",
"O#	c #D3E5C9",
"P#	c #688359",
"Q#	c #688358",
"R#	c #5C744C",
"S#	c #C5D5BB",
"T#	c #F9FBF8",
"U#	c #6D815E",
"V#	c #F1F6ED",
"W#	c #A9B69E",
"X#	c #455734",
"Y#	c #485F39",
"Z#	c #546848",
"`#	c #929D86",
" $	c #707968",
".$	c #ADBDCF",
"+$	c #3765A1",
"@$	c #4470A7",
"#$	c #B6C6D8",
"$$	c #94928F",
"%$	c #B3B1AD",
"&$	c #0B0B0B",
"*$	c #6A6A6A",
"=$	c #37452B",
"-$	c #859978",
";$	c #F9FBF1",
">$	c #A8C099",
",$	c #7F986D",
"'$	c #91AD83",
")$	c #96B288",
"!$	c #C3D8B6",
"~$	c #ACC3A0",
"{$	c #6D865D",
"]$	c #6E8D5F",
"^$	c #678357",
"/$	c #91AB85",
"($	c #FAFDF8",
"_$	c #E5EDD9",
":$	c #F1F7EB",
"<$	c #869879",
"[$	c #4B6139",
"}$	c #516B3E",
"|$	c #5E744E",
"1$	c #6C7B5E",
"2$	c #8F9B85",
"3$	c #102036",
"4$	c #4D76AD",
"5$	c #DFE8F2",
"6$	c #D7E2EF",
"7$	c #4671A9",
"8$	c #B0C0D5",
"9$	c #E3E3E3",
"0$	c #5B5B5B",
"a$	c #030303",
"b$	c #898989",
"c$	c #354528",
"d$	c #788B6B",
"e$	c #B1C4A5",
"f$	c #749266",
"g$	c #748A62",
"h$	c #89A578",
"i$	c #8DA77D",
"j$	c #8FA87F",
"k$	c #E3F2DC",
"l$	c #D3E5C7",
"m$	c #779265",
"n$	c #657D54",
"o$	c #698359",
"p$	c #627A4F",
"q$	c #5A7249",
"r$	c #BDCCB2",
"s$	c #FFFFFC",
"t$	c #A5B59A",
"u$	c #566B3E",
"v$	c #495E36",
"w$	c #4E653C",
"x$	c #5C704A",
"y$	c #677657",
"z$	c #60777A",
"A$	c #4670A6",
"B$	c #E2EBF4",
"C$	c #B4CAE3",
"D$	c #B8CDE5",
"E$	c #DEE7F2",
"F$	c #426DA5",
"G$	c #142439",
"H$	c #040404",
"I$	c #5A5A5A",
"J$	c #686868",
"K$	c #324028",
"L$	c #5C724C",
"M$	c #768B66",
"N$	c #6D8858",
"O$	c #6B845A",
"P$	c #80986C",
"Q$	c #819D70",
"R$	c #819D71",
"S$	c #899E7B",
"T$	c #869F76",
"U$	c #698257",
"V$	c #596E4A",
"W$	c #5E774E",
"X$	c #587549",
"Y$	c #556C44",
"Z$	c #637855",
"`$	c #FDFEF7",
" %	c #677B56",
".%	c #4C623C",
"+%	c #455934",
"@%	c #4A603A",
"#%	c #5A6B49",
"$%	c #557070",
"%%	c #4873A9",
"&%	c #E3EBF4",
"*%	c #B5CCE4",
"=%	c #6795C7",
"-%	c #6593C6",
";%	c #B8CDE4",
">%	c #436EA6",
",%	c #38475D",
"'%	c #373737",
")%	c #2B3621",
"!%	c #4D6040",
"~%	c #516642",
"{%	c #5A6E4A",
"]%	c #596E47",
"^%	c #6A835C",
"/%	c #6D835B",
"(%	c #6E845C",
"_%	c #61744E",
":%	c #637856",
"<%	c #627853",
"[%	c #5A724B",
"}%	c #4F643E",
"|%	c #556C42",
"1%	c #53683E",
"2%	c #4B613B",
"3%	c #425433",
"4%	c #90A286",
"5%	c #475C37",
"6%	c #445835",
"7%	c #3E4F30",
"8%	c #445735",
"9%	c #466261",
"0%	c #4974AA",
"a%	c #E3EBF5",
"b%	c #B7CDE5",
"c%	c #6A98C9",
"d%	c #6896C8",
"e%	c #6694C7",
"f%	c #6492C5",
"g%	c #4772AA",
"h%	c #8B9BB0",
"i%	c #B0B0B0",
"j%	c #303B25",
"k%	c #4B5E38",
"l%	c #566C43",
"m%	c #667954",
"n%	c #657857",
"o%	c #799068",
"p%	c #82976E",
"q%	c #81986F",
"r%	c #728665",
"s%	c #7B9069",
"t%	c #7A9068",
"u%	c #758E67",
"v%	c #637A56",
"w%	c #698158",
"x%	c #637E55",
"y%	c #607550",
"z%	c #56684B",
"A%	c #5E6F4F",
"B%	c #5F7152",
"C%	c #5F734E",
"D%	c #586A4A",
"E%	c #506E6B",
"F%	c #4A75AB",
"G%	c #E4ECF5",
"H%	c #B8CEE6",
"I%	c #6E9BCC",
"J%	c #6B99CA",
"K%	c #6997C9",
"L%	c #6592C6",
"M%	c #6290C4",
"N%	c #B7CCE3",
"O%	c #3A4A5F",
"P%	c #313B26",
"Q%	c #4A5A3C",
"R%	c #536743",
"S%	c #617552",
"T%	c #637455",
"U%	c #768F68",
"V%	c #819773",
"W%	c #889978",
"X%	c #748766",
"Y%	c #7F926F",
"Z%	c #819572",
"`%	c #899A78",
" &	c #788D6C",
".&	c #8DA17F",
"+&	c #8A9A7D",
"@&	c #819476",
"#&	c #79876E",
"$&	c #849176",
"%&	c #7D8B6B",
"&&	c #7B8C6E",
"*&	c #5F797D",
"=&	c #B9CFE6",
"-&	c #719ECE",
";&	c #6E9CCC",
">&	c #6C99CB",
",&	c #6A97C9",
"'&	c #608EC2",
")&	c #B6CBE3",
"!&	c #DDE6F1",
"~&	c #4873AB",
"{&	c #8999AE",
"]&	c #181E11",
"^&	c #3C4A2E",
"/&	c #435236",
"(&	c #46573C",
"_&	c #445437",
":&	c #536343",
"<&	c #5E714E",
"[&	c #5D6F50",
"}&	c #546747",
"|&	c #5A714C",
"1&	c #617551",
"2&	c #708164",
"3&	c #647657",
"4&	c #6C8060",
"5&	c #697F5E",
"6&	c #667655",
"7&	c #5A6B4C",
"8&	c #606E50",
"9&	c #546547",
"0&	c #4A6464",
"a&	c #4974A9",
"b&	c #B7CDE6",
"c&	c #6F9CCD",
"d&	c #F5F8FB",
"e&	c #F7F9FC",
"f&	c #E2EAF4",
"g&	c #8EAFD4",
"h&	c #5E8CC1",
"i&	c #B4CAE2",
"j&	c #4773AB",
"k&	c #5D5D5D",
"l&	c #0F1F32",
"m&	c #466FA6",
"n&	c #B6CCE5",
"o&	c #6C99CA",
"p&	c #6D9ACB",
"q&	c #C0D4E9",
"r&	c #9DBBDB",
"s&	c #A9C3DF",
"t&	c #EFF4F9",
"u&	c #5D8BC0",
"v&	c #5B89BF",
"w&	c #B3C8E1",
"x&	c #DCE6F1",
"y&	c #416DA4",
"z&	c #BBBBBB",
"A&	c #D7D7D7",
"B&	c #ECECEC",
"C&	c #F6F6F6",
"D&	c #EFEFEF",
"E&	c #4371A9",
"F&	c #DFE8F3",
"G&	c #B5CBE4",
"H&	c #6A98CA",
"I&	c #6B98CA",
"J&	c #6996C8",
"K&	c #85A9D2",
"L&	c #E9EFF7",
"M&	c #5F8DC2",
"N&	c #5A89BE",
"O&	c #5887BD",
"P&	c #B2C8E0",
"Q&	c #D1DDEC",
"R&	c #3566A5",
"S&	c #505050",
"T&	c #535353",
"U&	c #B8B8B8",
"V&	c #DEDEDE",
"W&	c #DFDFDF",
"X&	c #4874AB",
"Y&	c #B9CEE5",
"Z&	c #6895C8",
"`&	c #90B1D6",
" *	c #F8FAFC",
".*	c #F1F5FA",
"+*	c #7FA4CE",
"@*	c #5C8ABF",
"#*	c #5A88BE",
"$*	c #5786BC",
"%*	c #B1C7E0",
"&*	c #D9E3EF",
"**	c #3567A4",
"=*	c #555555",
"-*	c #EBEBEB",
";*	c #CDCDCD",
">*	c #717171",
",*	c #494949",
"'*	c #3E3E3E",
")*	c #2F2F2F",
"!*	c #A7B7CA",
"~*	c #4974AC",
"{*	c #6694C6",
"]*	c #6693C6",
"^*	c #F4F7FB",
"/*	c #7BA1CD",
"(*	c #5F8DC1",
"_*	c #5A89BF",
":*	c #5987BD",
"<*	c #416DA5",
"[*	c #161616",
"}*	c #0D0D0D",
"|*	c #C9C9C9",
"1*	c #080808",
"2*	c #2C2C2C",
"3*	c #D4D4D4",
"4*	c #D5D5D5",
"5*	c #A1B1C7",
"6*	c #6391C5",
"7*	c #6290C3",
"8*	c #608EC3",
"9*	c #5B8ABF",
"0*	c #5988BE",
"a*	c #4671AA",
"b*	c #E8E8E8",
"c*	c #0A0A0A",
"d*	c #C6C6C6",
"e*	c #141414",
"f*	c #ABABAB",
"g*	c #484848",
"h*	c #444444",
"i*	c #9CACC1",
"j*	c #4470A8",
"k*	c #B7CCE4",
"l*	c #618FC3",
"m*	c #B2C7E0",
"n*	c #65758B",
"o*	c #757575",
"p*	c #151515",
"q*	c #212121",
"r*	c #1E1E1E",
"s*	c #393939",
"t*	c #1D2D42",
"u*	c #5D8CC1",
"v*	c #5C8BC0",
"w*	c #29394E",
"x*	c #434343",
"y*	c #1F1F1F",
"z*	c #0F0F0F",
"A*	c #292929",
"B*	c #343434",
"C*	c #3D3D3D",
"D*	c #9E9E9E",
"E*	c #2B2B2B",
"F*	c #79899E",
"G*	c #4571A8",
"H*	c #B5CAE2",
"I*	c #5C8AC0",
"J*	c #4672A9",
"K*	c #637388",
"L*	c #6D6D6D",
"M*	c #111111",
"N*	c #070707",
"O*	c #0C0C0C",
"P*	c #8D9DB2",
"Q*	c #B4C9E1",
"R*	c #426FA6",
"S*	c #1A2A40",
"T*	c #8A8A8A",
"U*	c #575757",
"V*	c #515151",
"W*	c #5C5C5C",
"X*	c #666666",
"Y*	c #ADADAD",
"Z*	c #8393A8",
"`*	c #4772AB",
" =	c #6E7E93",
".=	c #2A2A2A",
"+=	c #0E0E0E",
"@=	c #1A1A1A",
"#=	c #181818",
"$=	c #101010",
"%=	c #050505",
"&=	c #102135",
"*=	c #D3DEEC",
"==	c #3665A3",
"-=	c #3566A3",
"                                                                                                ",
"                                                                                                ",
"                                                                                                ",
"                                                                                                ",
"                                                                                                ",
"                                                                                                ",
"          . . . . . . . . . . . . . . . . . . . . . . . . . . . . . . . . . . . . . . .         ",
"        . + @ # $ # % & * = - = ; ; - > , & > ' = , , % > , ) ' ! ~ { ] ^ ^ ! ) = / ( _ .       ",
"        . : ' ; < [ } | 1 2 3 4 5 @ 5 ^ 6 * 6 * 3 * 7 8 1 ! 9 0 5 a b c d e f g 7 h i 0 .       ",
"        . # j k . . . . . . . . . . . . . . . . . . . . . . . . . l m n m o : p 5 3 q g .       ",
"        . r < . s t u v w x y z A B C D E F G H I J K L M N O P Q . R S T U V W { X Y Z .       ",
"        . * ` .  ...+.@.#.$.%.&.*.=.-.;.>.,.'.).!.~.!.{.].^./.(._.. f R :.<.[.}.|.T & { .       ",
"        . % } . 1.2.3.4.5.6.7.7.8.9.0.a.b.c.d.e.f.g.h.i.j.k.l.m.n.. o.p.q.r.s.t.u.v.w.' .       ",
"        . % @ . x.y.z.4.A.B.C.D.E.F.G.H.I.J.K.L.e.M.N.O.P.Q.R.S.T.. e U.q V.W.X.Y.Z.`.# .       ",
"        .  +.+. ++@+#+4.$+%+&+*+=+-+;+>+E.,+'+)+!+~+{+]+^+/+(+_+:+. <+R [+r }+|+1+2+3+# .       ",
"        . , 4+. 5+6+7+8+9+4.0+a+b+c+d+e+f+4.g+h+i+j+k+l+m+4.n+o+p+. q+r+s+4+t+Z.2+u+v+w+.       ",
"        . > q . x+y+z+A+B+4.C+D+E+F+G+H+I+4.J+K+L+M+N+O+P+4.Q+R+S+. }+T+m g U+v+V+W+X+{ .       ",
"        . ; l . Y+Z+`+ @4.4.4..@+@@@#@$@4.4.4.%@&@*@=@-@4.;@;@>@,@. n <+'@)@!@[+~@] h 1 .       ",
"        . ' q . {@]@^@/@4.(@4._@:@<@[@}@4.|@4.1@2@3@4@5@4.6@_@7@8@. 9@u.0@a@b@+ c@* d@q .       ",
"        . , < . e@f@g@4.4.h@4.4.i@j@k@4.4.l@4.4.m@n@o@4.p@q@p@r@s@. t@u@v@r+n w@x@a y@q .       ",
"        . w+z@. A@B@C@4.D@E@F@4.G@H@I@4.J@K@L@4.M@N@O@4.P@Q@R@r@S@. T@U@v@r+l [+V@5 W@7 .       ",
"        . > b@. X@Y@Z@4.`@ #.#4.+#@###4.$#%#&#4.*#=#-#4.;#>#,#r@'#. n u.)#p.!#~#[+{#p h .       ",
"        . , p . ]#!.^#4./#(#_#4.:#<#[#4.}#|#1#4.2#3#4#5#6#7#8#p@9#. 0#a#b#c#d#e#f#T+& g#.       ",
"        . w+, . h#i#j#4.k#l#m#4.4.n#4.4.o#p#q#p@r#j.s#t#u#v#w#x#y#. 6 <+z#V.A#B#C#D#E#0 .       ",
"        . , [+. F#G#H#I#J#K#L#M#4.N#4.O#P#Q#R#S#T#U#V#W#X#Y#Z#`# $. .$+$@$#$$$%$|+Z.&$j .       ",
"        . - *$. =$-$;$>$,$'$)$!$4.p@_@~${$]$^$/$($_$:$<$[$}$|$1$2$3$4$5$6$7$8$9$0$a$v+b$.       ",
"        .  +f#. c$d$e$f$g$h$i$j$k$4.l$m$n$o$p$q$r$s$t$u$v$w$x$y$z$A$B$C$D$E$F$G$a$H$I$1 .       ",
"        . = J$. K$L$M$N$O$P$Q$R$S$4.T$U$V$W$X$Y$Z$`$ %.%+%@%#%$%%%&%*%=%-%;%E$>%,%k '%y@.       ",
"        . % } . )%!%~%{%]%^%/%(%_%:%<%[%}%|%1%2%3%4%5%6%7%8%9%0%a%b%c%d%e%f%;%E$g%h%d i%.       ",
"        . & * . j%k%l%m%n%o%p%q%r%s%t%u%v%w%x%y%z%A%B%C%D%E%F%G%H%I%J%K%=%L%M%N%E$7$O%x@.       ",
"        . = ~@. P%Q%R%S%T%U%V%W%X%Y%Z%`% &.&+&@&#&$&%&&&*&F%a%=&-&;&>&,&=%-%M%'&)&!&~&{&.       ",
"        . & ) . ]&^&/&(&_&:&<&[&}&|&1&2&3&4&5&6&7&8&9&0&a&&%b&c&c&I%d&d&e&f&g&'&h&i&!&j&3$      ",
"        .  +f#k&. . . . . . . . . . . . . . . . . . l&m&&%n&o&p&p&>&q&r&s&4.t&'&u&v&w&x&y&      ",
"        . , g#p q b$3 8 w@g#z&W@o.x@A&)@B&b#C&C#D&p.E&F&G&d%,&H&I&,&J&=%K&4.L&M&u&N&O&P&Q&R&    ",
"        . - g#] ` . . S&- w.. . T&W@U&:.b#V&0#9$9$W&X&6$Y&e%Z&d%d%Z&=%`& *.*+*h&@*#*$*%*&***    ",
"        . w+[+=*q -*W&: W+} ;*;*>*,*Z ) '*)*U@u@<+u@!*~*5$D$-%{*{*]*L%^*4./*(*u&_*:*%*!&<*      ",
"        . , i . -*[*}*Z . |*1*1*Y . r 2*<.|*3*3*;*4*A&5*~*E$D$6*f%6*M%7*8*(*u&9*0*%*!&a*3$      ",
"        . - |.. b*c*H$r+. R u+u+d*. T&e*f*g*b#h*E#y@o.'*i*j*E$k*l*l*8*4.4.u&9*#*m*!&j*n*.       ",
"        . - j | o*U&'@I$p*g*y@:.=*q*| r*!@c@p.'*p.V+R s*;*t*~*E$)&(*h&u*v*v&#*m*!&j*w*' .       ",
"        . ) ! r x*. . y*[*z*. . e*A*@ 4++ B*z#C*r+D#r+D*T+E*F*G*E$H*I*9*N&0*m*!&J*K*> w+.       ",
"        . * 0 j L*1+V+M*&$`.N*O*X+U.- h f*d n z&m :.n :.U c U&P*X&!&Q*:*O&%*!&R*S*E#+ ' .       ",
"        . {#T*|.! , >*2 U*1+V*W*X*/ |.Y t@i%q.q.U&b c c <.Y*Y*f*Z*`*!&w&%*!&`* =~ ' ; .=.       ",
"          . . . u+a$N*O*z*z*+=z*z*p*@=c@#=$=%=u+u+. . . . . . . . &=y&*=&*<*&=. . . . .         ",
"                                                                      ==-=                      ",
"                                                                                                ",
"                                                                                                ",
"                                                                                                ",
"                                                                                                "};
