/* XPM */
static const char * ParWindowIcon_xpm[] = {
"48 48 2 1",
" 	c None",
".	c #966565",
"                                                ",
"                                                ",
"                                                ",
"                                                ",
"                                                ",
"                                                ",
"                                                ",
"                                                ",
"                                                ",
"                                                ",
"                                                ",
"                                                ",
"                                                ",
"                                                ",
"                                                ",
"                                                ",
"...........          .....         ...........  ",
".............       .......        .............",
"..............      .......        .............",
"....      .....    .........       ....     ....",
"....       ....    .... ....       ....      ...",
"....       ....    .... ....       ....      ...",
"....       ....   ..... .....      ....      ...",
"....       ....   ....   ....      ....     ....",
"....      .....   ....   ....      .............",
"..............   ....     ....     ...........  ",
".............    ....     ....     ............ ",
"...........     ...............    ....    .....",
"....            ...............    ....     ....",
"....            ...............    ....      ...",
"....           .....       .....   ....      ...",
"....           ....         ....   ....       ..",
"....           ....         ....   ....       ..",
"....          ....           ....  ....       ..",
"                                                ",
"                                                ",
"                                                ",
"                                                ",
"                                                ",
"                                                ",
"                                                ",
"                                                ",
"                                                ",
"                                                ",
"                                                ",
"                                                ",
"                                                ",
"                                                "};
