/* XPM */
static const char * pause_xpm[] = {
"32 32 47 1",
" 	c None",
".	c #5A5B57",
"+	c #555753",
"@	c #595A57",
"#	c #FFFFFF",
"$	c #B4B5B2",
"%	c #B5B6B2",
"&	c #B7B8B5",
"*	c #B7B8B4",
"=	c #B9BAB6",
"-	c #BABBB7",
";	c #BCBDBA",
">	c #BEBFBB",
",	c #BEBFBC",
"'	c #C1C2BF",
")	c #C2C3C0",
"!	c #C3C4C1",
"~	c #C6C7C4",
"{	c #C7C8C4",
"]	c #C8C9C6",
"^	c #CCCCC9",
"/	c #CBCCC9",
"(	c #CCCDCA",
"_	c #D1D1CE",
":	c #D0D1CE",
"<	c #CFD0CD",
"[	c #D1D1CF",
"}	c #D6D6D3",
"|	c #D5D6D3",
"1	c #D3D4D1",
"2	c #D5D5D3",
"3	c #DBDBD9",
"4	c #DADBD8",
"5	c #D7D7D4",
"6	c #D8D9D6",
"7	c #E0E0DE",
"8	c #DFDFDD",
"9	c #D9DAD7",
"0	c #DBDCD9",
"a	c #E5E5E3",
"b	c #E4E4E2",
"c	c #DDDDDB",
"d	c #E9E9E7",
"e	c #E8E8E6",
"f	c #EAEAE8",
"g	c #656663",
"h	c #646662",
"                                ",
"                                ",
"                                ",
"                                ",
"                                ",
"                                ",
"                                ",
"                                ",
"        .++++.    .++++@        ",
"        +####+    +####+        ",
"        +#$%#+    +#&*#+        ",
"        +#=-#+    +#;;#+        ",
"        +#>,#+    +#''#+        ",
"        +#)!#+    +#~~#+        ",
"        +#{]#+    +#^/#+        ",
"        +#/(#+    +#_:#+        ",
"        +#<[#+    +#}|#+        ",
"        +#12#+    +#34#+        ",
"        +#56#+    +#78#+        ",
"        +#90#+    +#ab#+        ",
"        +#3c#+    +#de#+        ",
"        +#3c#+    +#fe#+        ",
"        +####+    +####+        ",
"        g++++g    g++++h        ",
"                                ",
"                                ",
"                                ",
"                                ",
"                                ",
"                                ",
"                                ",
"                                "};
