/* XPM */
static const char * play_xpm[] = {
"32 32 120 2",
"  	c None",
". 	c #535450",
"+ 	c #555753",
"@ 	c #676865",
"# 	c #555553",
"$ 	c #F9F9F9",
"% 	c #ABACAA",
"& 	c #5D605B",
"* 	c #FFFFFF",
"= 	c #ECECEC",
"- 	c #EDEEED",
"; 	c #878987",
"> 	c #5B5C58",
", 	c #BCBDBA",
"' 	c #D3D3D1",
") 	c #F6F7F6",
"! 	c #D8D8D7",
"~ 	c #6E706C",
"{ 	c #575956",
"] 	c #C0C1BE",
"^ 	c #C2C3BF",
"/ 	c #C5C6C3",
"( 	c #E1E2E0",
"_ 	c #FAFAF9",
": 	c #B9BAB8",
"< 	c #60625E",
"[ 	c #C4C5C2",
"} 	c #C6C7C4",
"| 	c #C7C8C5",
"1 	c #C9C9C6",
"2 	c #D0D0CE",
"3 	c #EEEEED",
"4 	c #F4F4F4",
"5 	c #959694",
"6 	c #5C5D5A",
"7 	c #C8C9C6",
"8 	c #CACBC8",
"9 	c #CCCCC9",
"0 	c #CDCECB",
"a 	c #CECFCC",
"b 	c #DBDCD9",
"c 	c #F6F6F6",
"d 	c #E3E4E3",
"e 	c #767875",
"f 	c #CCCDC9",
"g 	c #D0D0CD",
"h 	c #D1D2CF",
"i 	c #D2D3D0",
"j 	c #D3D4D1",
"k 	c #E5E6E4",
"l 	c #FAFBFA",
"m 	c #C7C8C6",
"n 	c #646762",
"o 	c #535453",
"p 	c #CFD0CD",
"q 	c #D2D2CF",
"r 	c #D4D4D2",
"s 	c #D5D6D3",
"t 	c #D7D7D4",
"u 	c #D7D8D5",
"v 	c #D7D7D5",
"w 	c #D6D6D3",
"x 	c #D8D9D6",
"y 	c #F8F8F8",
"z 	c #A3A3A1",
"A 	c #5F615C",
"B 	c #D8D8D5",
"C 	c #DADAD7",
"D 	c #DBDBD9",
"E 	c #DCDCDA",
"F 	c #DADAD8",
"G 	c #DBDBDA",
"H 	c #EFEFEE",
"I 	c #A4A4A2",
"J 	c #646661",
"K 	c #DDDEDB",
"L 	c #DFE0DD",
"M 	c #E0E1DE",
"N 	c #E0E0DE",
"O 	c #ECECEB",
"P 	c #FBFBFB",
"Q 	c #C9CAC8",
"R 	c #686A66",
"S 	c #919391",
"T 	c #DBDBD8",
"U 	c #DEDEDC",
"V 	c #E1E1DF",
"W 	c #E3E3E1",
"X 	c #E5E5E3",
"Y 	c #ECECEA",
"Z 	c #E6E7E6",
"` 	c #787A76",
" .	c #7F807D",
"..	c #DCDDDA",
"+.	c #E9EAE7",
"@.	c #F8F8F7",
"#.	c #F7F7F7",
"$.	c #999B98",
"%.	c #6F706E",
"&.	c #D9D9D7",
"*.	c #DDDDDA",
"=.	c #E1E2DF",
"-.	c #F1F1F0",
";.	c #FCFCFC",
">.	c #BFC0BF",
",.	c #9EA09C",
"'.	c #E7E7E6",
").	c #FAFAFA",
"!.	c #DDDEDD",
"~.	c #727470",
"{.	c #878885",
"].	c #F1F1F1",
"^.	c #8B8D8A",
"/.	c #757673",
"(.	c #B0B1AF",
"_.	c #696A67",
":.	c #A9A9A9",
"<.	c #6C6C69",
"[.	c #8D8D8C",
"}.	c #6F716C",
"                                                                ",
"                                                                ",
"                                                                ",
"                                                                ",
"                                                                ",
"                                                                ",
"                .                                               ",
"                + @ #                                           ",
"                + $ % &                                         ",
"                + * = - ; >                                     ",
"                + * , ' ) ! ~ {                                 ",
"                + * ] ^ / ( _ : <                               ",
"                + * [ } | 1 2 3 4 5 6                           ",
"                + * 7 8 9 0 a a b c d e {                       ",
"                + * f a g h i ' ' j k l m n o                   ",
"                + * p q r s t u u v w x 3 y z A                 ",
"                + * i s B C D E E b F G H y I J                 ",
"                + * s x D K L M M N O P Q R S                   ",
"                + * u T U V W X Y _ Z `  .                      ",
"                + * x ..N W +.@.#.$.%.                          ",
"                + * &.*.=.-.;.>.R ,.                            ",
"                + * x '.).!.~.{.                                ",
"                + * 4 ].^./.                                    ",
"                + P (._.:.                                      ",
"                + <.[.                                          ",
"                }.                                              ",
"                                                                ",
"                                                                ",
"                                                                ",
"                                                                ",
"                                                                ",
"                                                                "};
