/* XPM */
static const char * const shanks_xpm[] = {
"32 32 158 2",
"  	c None",
". 	c #B3B3B3",
"+ 	c #B2B2B2",
"@ 	c #B4B4B4",
"# 	c #C06E6E",
"$ 	c #CB3030",
"% 	c #B99191",
"& 	c #C45454",
"* 	c #CB3232",
"= 	c #C16565",
"- 	c #B7A1A1",
"; 	c #C84545",
"> 	c #C84141",
", 	c #C64D4D",
"' 	c #B6A4A4",
") 	c #C93B3B",
"! 	c #C06868",
"~ 	c #C45757",
"{ 	c #B98E8E",
"] 	c #C06F6F",
"^ 	c #B89191",
"/ 	c #BF7575",
"( 	c #B6A3A3",
"_ 	c #BB8686",
": 	c #BE7676",
"< 	c #BA8D8D",
"[ 	c #B5ABAB",
"} 	c #BC7E7E",
"| 	c #BD7D7D",
"1 	c #BF7474",
"2 	c #B5AAAA",
"3 	c #C06969",
"4 	c #BB8484",
"5 	c #BB8787",
"6 	c #B6A1A1",
"7 	c #C36060",
"8 	c #D01212",
"9 	c #BB8A8A",
"0 	c #B89D9D",
"a 	c #CC2C2C",
"b 	c #CD2828",
"c 	c #CB3535",
"d 	c #CA3333",
"e 	c #12F7F7",
"f 	c #42E3E3",
"g 	c #B6A0A0",
"h 	c #B99292",
"i 	c #B7A0A0",
"j 	c #B4AFAF",
"k 	c #B89898",
"l 	c #B89797",
"m 	c #BA8E8E",
"n 	c #92C1C1",
"o 	c #9CBDBD",
"p 	c #C35D5D",
"q 	c #D20C0C",
"r 	c #C55151",
"s 	c #B79C9C",
"t 	c #CB2F2F",
"u 	c #CB2E2E",
"v 	c #C93E3E",
"w 	c #B69C9C",
"x 	c #BA8A8A",
"y 	c #B5A9A9",
"z 	c #B5A8A8",
"A 	c #B69A9A",
"B 	c #B3ADAD",
"C 	c #B6A6A6",
"D 	c #B89090",
"E 	c #BA9090",
"F 	c #B4AEAE",
"G 	c #B3AFAF",
"H 	c #B99797",
"I 	c #B4AAAA",
"J 	c #C45858",
"K 	c #D30101",
"L 	c #BC8585",
"M 	c #CB3333",
"N 	c #D30404",
"O 	c #C64A4A",
"P 	c #B79A9A",
"Q 	c #CE1D1D",
"R 	c #CF1919",
"S 	c #CF1A1A",
"T 	c #D01919",
"U 	c #D40000",
"V 	c #C74545",
"W 	c #CA3737",
"X 	c #BC8181",
"Y 	c #C35A5A",
"Z 	c #B79999",
"` 	c #BB8585",
" .	c #B5A7A7",
"..	c #B99898",
"+.	c #B4ADAD",
"@.	c #B99090",
"#.	c #B3B2B2",
"$.	c #B89393",
"%.	c #C16666",
"&.	c #CE1F1F",
"*.	c #BA8C8C",
"=.	c #C45C5C",
"-.	c #B79F9F",
";.	c #CC2A2A",
">.	c #C64B4B",
",.	c #8BC4C4",
"'.	c #69D3D3",
").	c #A0BBBB",
"!.	c #C06A6A",
"~.	c #BC8787",
"{.	c #C16969",
"].	c #BF7373",
"^.	c #BD7E7E",
"/.	c #B4ABAB",
"(.	c #BA8B8B",
"_.	c #BD7F7F",
":.	c #74CECE",
"<.	c #3CE6E6",
"[.	c #94C0C0",
"}.	c #C16D6D",
"|.	c #C93C3C",
"1.	c #C64F4F",
"2.	c #C64C4C",
"3.	c #C74444",
"4.	c #C74343",
"5.	c #C26262",
"6.	c #C25F5F",
"7.	c #C07575",
"8.	c #B98686",
"9.	c #B79E9E",
"0.	c #8383C8",
"a.	c #6262D5",
"b.	c #A8A8B8",
"c.	c #BE7878",
"d.	c #BE7777",
"e.	c #BE7B7B",
"f.	c #C84242",
"g.	c #B99696",
"h.	c #7070D0",
"i.	c #4242E3",
"j.	c #A4A4BA",
"k.	c #C74A4A",
"l.	c #C64848",
"m.	c #C26464",
"n.	c #BD7878",
"o.	c #B89696",
"p.	c #7171CF",
"q.	c #4545E2",
"r.	c #5656DA",
"s.	c #5454DC",
"t.	c #C35F5F",
"u.	c #B79D9D",
"v.	c #8181C8",
"w.	c #5F5FD6",
"x.	c #6D6DD1",
"y.	c #6B6BD2",
"z.	c #C26363",
"A.	c #BE7979",
"                                                                ",
"                                                                ",
"      . . . . . . . . . . . . . . . . . . . . . . . . . .       ",
"      . . . . . . . . . . . . . . . . . . . . . . . . . .       ",
"      + + + + + . . . + + + + . . + + + + @ . . + + + + @       ",
"      . . . . .     . . . . .     . . . . .     . . . . .       ",
"      # $ % & *     = $ - ; >     , , ' ) !     $ ~ { $ ]       ",
"      ^ / ( _ :     < / [ } |     / 1 2 3 4     / 5 6 / %       ",
"      7 8 9 . .     & 8 0 a b     c d . . .     e f . . .       ",
"      g h [ . .     i h j k l     m < . . .     n o . . .       ",
"      p q 5 . .     r q s . .     t u . . .     q v . . .       ",
"      w x y z '     A x B C C     D E . F G     x H j ( I       ",
"      J K L M N     O K P Q R     S T s U V     K W X K Y       ",
"      Z `  .. .     ..` +.. .     @.@.#.2 +.    ` $.. . .       ",
"      %.&.*.. .     =.&.-.. .     a ;.. . .     &.>.. . .       ",
"      ,.'.).| !.    ~.{.y / ].    ^.| /.1 (.    {._.-.{.(.      ",
"      :.<.[.p v     }.|.( 1.2.    3.4.( $ 5.    |.6.h |.7.      ",
"      8.5.9.. .     0.a.b.. .     c.d.. . .     5.e.. . .       ",
"      d.f.g.. .     h.i.j.. .     k.l.. . .     f.m.. . .       ",
"      n.; o.. .     p.q.j.r.s.    6.t.. . .     ; %.. . .       ",
"      ` 6.u.. .     v.w.b.x.y.    z.5.. . .     6.A.. . .       ",
"      . . . . .     . . . . .     . . . . .     . . . . .       ",
"      . . . . .     . . . . .     . . . . .     . . . . .       ",
"      . . . . .     . . . . .     . . . . .     . . . . .       ",
"      . + + + +     . + + + .     @ @ @ @ +     @ @ @ @ +       ",
"        . . . .       . . . @     . . . .       . . . .         ",
"        . . .         + . .         . . @         . . +         ",
"          . @           .           + .           . .           ",
"                                      @             @           ",
"                                                                ",
"                                                                ",
"                                                                "};
