/* XPM */
static const char * const window_fullscreen_xpm[] = {
"32 32 58 1",
" 	c None",
".	c #244E89",
"+	c #224D8A",
"@	c #2D5893",
"#	c #254F8B",
"$	c #4C77AD",
"%	c #6794C5",
"&	c #234D89",
"*	c #305B95",
"=	c #719FCE",
"-	c #729FCF",
";	c #507CB2",
">	c #244F8B",
",	c #214B87",
"'	c #204A87",
")	c #929292",
"!	c #8D8D8D",
"~	c #FFFFFF",
"{	c #7E97BA",
"]	c #FEFEFE",
"^	c #4D6F9F",
"/	c #FCFCFC",
"(	c #FAFAFA",
"_	c #244E8B",
":	c #F7F7F7",
"<	c #4B76AC",
"[	c #F9F9F9",
"}	c #F4F4F4",
"|	c #4A76AC",
"1	c #244E8A",
"2	c #2A5590",
"3	c #6390C2",
"4	c #F0F0F0",
"5	c #6F9CCC",
"6	c #6491C3",
"7	c #2C5691",
"8	c #224C89",
"9	c #517CB2",
"0	c #F5F5F5",
"a	c #EDEDED",
"b	c #537EB3",
"c	c #234D8A",
"d	c #355F99",
"e	c #EAEAEA",
"f	c #356099",
"g	c #234E8A",
"h	c #F2F2F2",
"i	c #E7E7E7",
"j	c #E3E3E3",
"k	c #EEEEEE",
"l	c #E0E0E0",
"m	c #8B8B8B",
"n	c #8A8A8A",
"o	c #305A95",
"p	c #507BB1",
"q	c #4D79AF",
"r	c #6894C6",
"s	c #2E5993",
"                                ",
"                                ",
"                .               ",
"               +@               ",
"              #$%&              ",
"              *=-;>             ",
"             ,''''''            ",
"                                ",
"                                ",
"        )!!!!!!!!!!!!!!)        ",
"        !~~~~~~~~~~~~~~!        ",
"        !~{{{{{{{{{{{{~!        ",
"        !]^^^^^^^^^^^^]!        ",
"        !/((((((((((((/!        ",
"    _'  !(::::::::::::(!  '_    ",
"   &<'  ![}}}}}}}}}}}}[!  ,|&   ",
" 123-'  !:444444444444:!  ,5671 ",
" 8&9-'  !0aaaaaaaaaaaa0!  ,5bc8 ",
"   1d'  !}eeeeeeeeeeee}!  ,fg   ",
"    &'  !hiiiiiiiiiiiih!  'c    ",
"        !4jjjjjjjjjjjj4!        ",
"        !kllllllllllllk!        ",
"        !akkkkkkkkkkkka!        ",
"        m!!!!!!!!!!!!!!n        ",
"                                ",
"                                ",
"             ',,,,''            ",
"              o55p1             ",
"              _qrc              ",
"               &s8              ",
"                &               ",
"                                "};
