/* XPM */
static const char * const window_nofullscreen_xpm[] = {
"32 32 117 2",
"  	c None",
". 	c #587DAE",
"+ 	c #9EB7D5",
"@ 	c #2A5490",
"# 	c #7293BD",
"$ 	c #AAC2DE",
"% 	c #466EA3",
"& 	c #335B94",
"* 	c #8FACCF",
"= 	c #ADC6E1",
"- 	c #4C73A6",
"; 	c #214C88",
"> 	c #234D8A",
", 	c #244E8A",
"' 	c #476CA0",
") 	c #A2BEDB",
"! 	c #AEC7E2",
"~ 	c #5379AA",
"{ 	c #2C548F",
"] 	c #40669C",
"^ 	c #244E89",
"/ 	c #6E8FBA",
"( 	c #A5C1DF",
"_ 	c #ABC6E2",
": 	c #6083B1",
"< 	c #254F8B",
"[ 	c #4E73A5",
"} 	c #A4BFDD",
"| 	c #43689D",
"1 	c #335A92",
"2 	c #90AED0",
"3 	c #98B9DC",
"4 	c #9EBDDE",
"5 	c #7192BC",
"6 	c #6C8EB9",
"7 	c #9ABADC",
"8 	c #9FBCDC",
"9 	c #A3BFDD",
"0 	c #88AED6",
"a 	c #94B6DA",
"b 	c #82A1C7",
"c 	c #234E8A",
"d 	c #86A5CA",
"e 	c #84ABD5",
"f 	c #729FCF",
"g 	c #90AED1",
"h 	c #264F8B",
"i 	c #244E8B",
"j 	c #9DB9D9",
"k 	c #79A3D1",
"l 	c #99BADC",
"m 	c #5477A7",
"n 	c #224C89",
"o 	c #2A528D",
"p 	c #A7C2E0",
"q 	c #82AAD4",
"r 	c #97B8DB",
"s 	c #A6C1DE",
"t 	c #466CA0",
"u 	c #AAC5E2",
"v 	c #A6C2DF",
"w 	c #9BB8D7",
"x 	c #88A6CB",
"y 	c #7293BC",
"z 	c #597CAC",
"A 	c #3B6197",
"B 	c #204A87",
"C 	c #325991",
"D 	c #3D6298",
"E 	c #28508B",
"F 	c #26508C",
"G 	c #214B88",
"H 	c #919191",
"I 	c #8E8E8E",
"J 	c #939393",
"K 	c #FFFFFF",
"L 	c #FCFCFC",
"M 	c #959595",
"N 	c #FCFCFD",
"O 	c #7F98BB",
"P 	c #8AA0C0",
"Q 	c #8D8D8D",
"R 	c #8C8F92",
"S 	c #5372A2",
"T 	c #5271A2",
"U 	c #617FA8",
"V 	c #F8F8F8",
"W 	c #8F8F8F",
"X 	c #F0F0F0",
"Y 	c #F7F7F7",
"Z 	c #849BBD",
"` 	c #7E97BA",
" .	c #909090",
"..	c #EDEDED",
"+.	c #F3F3F3",
"@.	c #F5F5F5",
"#.	c #FAFAFA",
"$.	c #5B7AA6",
"%.	c #5575A3",
"&.	c #5676A4",
"*.	c #E8E8E8",
"=.	c #EEEEEE",
"-.	c #F2F2F2",
";.	c #E3E3E3",
">.	c #E9E9E9",
",.	c #EBEBEB",
"'.	c #F6F6F6",
").	c #E0E0E0",
"!.	c #E6E6E6",
"~.	c #F4F4F4",
"{.	c #DDDDDD",
"].	c #EAEAEA",
"^.	c #E2E2E2",
"/.	c #F1F1F1",
"(.	c #7B7B7B",
"_.	c #7D7D7D",
":.	c #EFEFEF",
"                                                                ",
"                                                                ",
"                                                                ",
"                                                      . +       ",
"                                                  @ # $ %       ",
"                                                & * = -         ",
"                                  ; >       , ' ) ! ~           ",
"                                  { ] >   ^ / ( _ : <           ",
"                                  [ } | 1 2 3 4 5 ,             ",
"                                  6 7 8 9 0 a b c               ",
"                                < d e f f 0 g h                 ",
"                                i j k f f l m n                 ",
"                                o p f k q r s t ,               ",
"                                ' u v w x y z A B B             ",
"                                C D E < F G                     ",
"                                                                ",
"                H I I I I I I I I I I I                         ",
"                J K K K K K K K K K K L H                       ",
"                M N O O O O O O O O P L H                       ",
"    J Q Q Q Q Q Q Q Q Q Q Q R S T T U V W                       ",
"    I L K K K K K K K K K K W X Y Y Y Y W                       ",
"    I L Z ` ` ` ` ` ` ` ` K  ...+.+.+.@.W                       ",
"    I #.$.%.%.%.%.%.%.%.&.L  .*.=.=.=.-.W                       ",
"    I V Y Y Y Y Y Y Y Y Y #. .;.>.>.,.X W                       ",
"    I '.+.+.+.+.+.+.+.+.+.V  .).!.!.*.=.W                       ",
"    I ~.=.=.=.=.=.=.=.=.=.@.W {.;.;.;...W                       ",
"    I -.].].].].].].].].].+.W {.^.^.^.{.I                       ",
"    I X !.!.!.!.!.!.!.!.!./.I (.(.(.(.(._.                      ",
"    I ..^.^.^.^.^.^.^.^.^.:.I                                   ",
"    I ,.=.=.=.=.=.=.=.=.=...Q                                   ",
"    I Q Q Q Q Q Q Q Q Q Q Q Q                                   ",
"                                                                "};
